<svg width="79.375mm" height="15.224mm" version="1.1" viewBox="0 0 79.375 15.224" xmlns="http://www.w3.org/2000/svg">
  <g transform="translate(-52.475 -66.814)">
    <g transform="matrix(.97826 0 0 .97826 1.1407 1.4524)" fill="#ebedef" stroke-width=".26458" aria-label="{rn.code}">
      <path d="m54.542 74.641q0.79926 0.30317 1.13 0.8452t0.33073 1.5618v2.3243q0 1.0473 0.58796 1.4791 0.58796 0.4226 1.7639 0.4226v1.1024q-1.6445 0-2.5907-0.73495-0.93706-0.73495-0.93706-2.2692v-2.3243q0-1.0473-0.58796-1.4699-0.58796-0.43178-1.7639-0.43178v-1.1024q1.1667 0 1.7547-0.4226 0.59715-0.43178 0.59715-1.4791v-2.3243q0-1.5342 0.93706-2.2692 0.94625-0.73495 2.5907-0.73495v1.1024q-1.1667 0-1.7639 0.43178-0.58796 0.4226-0.58796 1.4699v2.3243q0 1.0197-0.33073 1.5618t-1.13 0.8452z"/>
      <path d="m66.108 72.601q-1.2494 0-1.9752 0.67064-0.37666 0.3491-0.61552 0.7717t-0.33073 0.94625q-0.09187 0.51447-0.11024 0.83601-0.01837 0.32154-0.01837 0.86357v4.3638h-1.1759v-9.4074h1.1759v1.4607h0.09187q0.56959-0.7717 1.2586-1.1851 0.69821-0.4226 1.6996-0.4226 0.67983 0 1.6536 0.11943v1.1024q-0.97381-0.11943-1.6536-0.11943z"/>
      <path d="m74.413 71.499q0.66146 0 1.2127 0.26642 0.55122 0.26642 0.9095 0.71658 0.22967 0.2848 0.36748 0.58796t0.18374 0.67064q0.05512 0.36748 0.06431 0.60634 0.01837 0.23886 0.01837 0.67064v6.0358h-1.1759v-6.0358q0-0.50528-0.01837-0.75333-0.0092-0.24805-0.11024-0.55122-0.09187-0.31236-0.2848-0.54203-0.49609-0.56959-1.3505-0.56959t-1.3505 0.56959q-0.19292 0.22967-0.29398 0.54203-0.09187 0.30317-0.11024 0.55122-0.0092 0.24805-0.0092 0.75333v6.0358h-1.1759v-9.4074h1.1759v1.0289h0.09187q0.33992-0.53284 0.83601-0.85438 0.50528-0.32154 1.0197-0.32154z"/>
      <path d="m82.461 78.849h2.3518v2.2049h-2.3518z"/>
      <path d="m89.287 78.04q-0.06431-0.66146-0.06431-1.6904t0.06431-1.6904q0.07349-0.66146 0.33073-1.2402 0.83601-1.9201 3.1144-1.9201 0.91869 0 2.4805 0.15618v1.1024q-1.5801-0.15618-2.4805-0.15618-0.79007 0-1.2586 0.30317-0.45935 0.29398-0.75333 0.90032-0.14699 0.31236-0.22967 0.78089-0.0735 0.46853-0.08268 0.80845-0.0092 0.33073-0.0092 0.95544t0.0092 0.96463q0.0092 0.33073 0.08268 0.79926 0.08268 0.46853 0.22967 0.78089 0.29398 0.60634 0.75333 0.9095 0.46853 0.29398 1.2586 0.29398 1.0749 0 2.6642-0.23886v1.1024q-1.5802 0.23886-2.6642 0.23886-2.2784 0-3.1144-1.9201-0.25723-0.57878-0.33073-1.2402z"/>
      <path d="m100.92 71.894q0.67983-0.39504 1.5342-0.39504 0.85438 0 1.525 0.39504 0.67984 0.38585 1.1116 1.0749 0.35829 0.58796 0.47772 1.3964 0.11943 0.79926 0.11943 1.9844t-0.11943 1.9936q-0.11943 0.79926-0.47772 1.3872-0.43178 0.68902-1.1116 1.0841-0.67064 0.38585-1.525 0.38585-0.85439 0-1.5342-0.38585-0.67064-0.39504-1.1024-1.0841-0.35829-0.58796-0.47772-1.3872-0.11943-0.80845-0.11943-1.9936t0.11943-1.9844q0.11943-0.80845 0.47772-1.3964 0.43179-0.68902 1.1024-1.0749zm3.1511 1.6077q-0.53284-0.90032-1.6169-0.90032-1.0841 0-1.6169 0.90032-0.20211 0.33992-0.30317 0.85438-0.10106 0.50528-0.11943 0.9095-0.0184 0.40422-0.0184 1.0841t0.0184 1.0841 0.11943 0.91869q0.10106 0.50528 0.30317 0.8452 0.53284 0.90032 1.6169 0.90032 1.084 0 1.6169-0.90032 0.20211-0.33992 0.30317-0.8452 0.10106-0.51447 0.11943-0.91869 0.0184-0.40422 0.0184-1.0841t-0.0184-1.0841-0.11943-0.9095q-0.10106-0.51447-0.30317-0.85438z"/>
      <path d="m111.53 71.499q0.61552 0 1.1484 0.32154 0.53284 0.31236 0.85438 0.97381h0.0919v-4.6761h1.1759v12.935h-1.1759v-1.1484h-0.0919q-0.32154 0.66146-0.85438 0.983-0.53285 0.31236-1.1484 0.31236-0.9095 0-1.6169-0.56959-0.70739-0.57878-1.0289-1.6077-0.11943-0.38585-0.18374-0.86357-0.0551-0.47772-0.0643-0.80845-9e-3 -0.33992-9e-3 -1.0014t9e-3 -0.99219q9e-3 -0.33992 0.0643-0.81764 0.0643-0.47772 0.18374-0.86357 0.32154-1.0289 1.0289-1.5985 0.7074-0.57878 1.6169-0.57878zm1.2219 1.5067q-0.4226-0.40422-1.0381-0.40422t-1.0473 0.40422q-0.4226 0.39504-0.62471 0.99219-0.23886 0.72577-0.23886 2.3518t0.23886 2.3518q0.20211 0.59715 0.62471 1.0014 0.43179 0.39504 1.0473 0.39504t1.0381-0.39504q0.43179-0.40422 0.6339-1.0014 0.23886-0.72577 0.23886-2.3518t-0.23886-2.3518q-0.20211-0.59715-0.6339-0.99219z"/>
      <path d="m122.39 72.895q-0.45935-0.29398-1.1208-0.29398-0.66146 0-1.13 0.29398-0.45935 0.29398-0.66146 0.81764-0.19293 0.44097-0.24805 1.5342h4.079q-0.0551-1.0932-0.24804-1.5342-0.20212-0.52365-0.67065-0.81764zm-2.9582-0.88194q0.76252-0.51447 1.8374-0.51447t1.8282 0.51447q0.76252 0.51447 1.0657 1.3321 0.15618 0.39504 0.22968 0.92788 0.0827 0.53284 0.0919 0.94625 0.0184 0.40422 0.0184 1.13h-5.2917q0 0.62471 9e-3 0.96463 9e-3 0.33073 0.0735 0.79926 0.0735 0.46853 0.2113 0.78089 0.53284 1.2035 1.9476 1.2035 1.0657 0 2.7561-0.19292v1.1024q-1.672 0.19292-2.7561 0.19292-1.1392 0-1.9201-0.53284t-1.13-1.3872q-0.23886-0.57878-0.30317-1.2402-0.0643-0.66146-0.0643-1.6904 0-0.72577 9e-3 -1.13 0.0184-0.41341 0.0919-0.94625 0.0827-0.53284 0.23886-0.92788 0.30317-0.81764 1.0565-1.3321z"/>
      <path d="m131.55 74.641v-0.09187q-0.79926-0.30317-1.13-0.8452t-0.33073-1.5618v-2.3243q0-1.0473-0.59715-1.4699-0.58796-0.43178-1.7547-0.43178v-1.1024q1.6445 0 2.5815 0.73495 0.94625 0.73495 0.94625 2.2692v2.3243q0 1.0473 0.58797 1.4791 0.59715 0.4226 1.7639 0.4226v1.1024q-1.1759 0-1.7639 0.43178-0.58797 0.4226-0.58797 1.4699v2.3243q0 1.5342-0.94625 2.2692-0.93706 0.73495-2.5815 0.73495v-1.1024q1.1759 0 1.7639-0.4226 0.58796-0.43178 0.58796-1.4791v-2.3243q0-1.0197 0.33073-1.5618t1.13-0.8452z"/>
    </g>
    <circle cx="43.23" cy="34.671" r="6.4556" fill="#1b2631" stroke="#d6dbdf" stroke-linecap="round" stroke-linejoin="round" stroke-width=".66146"/>
    <path d="m59.347 35.914c1.61-3.3903-0.60329-7.7714 3.6062-7.6794 3.6398 0.07956-0.49326 5.9727-2.8613 3.8233-2.368-2.1491 3.177-1.6024 3.9669 1.5165 1.6397 6.474 0.0069-4.0937 2.845-4.7725" fill="none" stroke="#ebedef" stroke-linecap="round" stroke-width=".38294"/>
    <g transform="matrix(.38793 0 0 .38793 -7.6378 55.302)" fill="#1b2631" stroke-width=".26458" aria-label="{rn}">
      <path d="m-10.412 98.179q0.79926 0.30317 1.13 0.8452t0.33073 1.5618v2.3243q0 1.0473 0.58796 1.4791 0.58796 0.4226 1.7639 0.4226v1.1024q-1.6445 0-2.5907-0.73495-0.93707-0.73496-0.93707-2.2692v-2.3243q0-1.0473-0.58796-1.4699-0.58796-0.43178-1.7639-0.43178v-1.1024q1.1667 0 1.7547-0.4226 0.59715-0.43178 0.59715-1.4791v-2.3243q0-1.5342 0.93707-2.2692 0.94625-0.73495 2.5907-0.73495v1.1024q-1.1667 0-1.7639 0.43178-0.58796 0.4226-0.58796 1.4699v2.3243q0 1.0197-0.33073 1.5618t-1.13 0.8452z"/>
      <path d="m1.1548 96.14q-1.2494 0-1.9752 0.67064-0.37666 0.3491-0.61552 0.7717-0.23886 0.4226-0.33073 0.94625-0.091869 0.51447-0.11024 0.83601-0.018374 0.32154-0.018374 0.86357v4.3638h-1.1759v-9.4074h1.1759v1.4607h0.091869q0.56959-0.7717 1.2586-1.1851 0.69821-0.4226 1.6996-0.4226 0.67983 0 1.6536 0.11943v1.1024q-0.97381-0.11943-1.6536-0.11943z"/>
      <path d="m9.4597 95.037q0.66146 0 1.2127 0.26642 0.55122 0.26642 0.9095 0.71658 0.22967 0.28479 0.36748 0.58796 0.1378 0.30317 0.18374 0.67064 0.05512 0.36748 0.06431 0.60634 0.01837 0.23886 0.01837 0.67064v6.0358h-1.1759v-6.0358q0-0.50528-0.01837-0.75333-0.0092-0.24805-0.11024-0.55121-0.09187-0.31236-0.28479-0.54203-0.49609-0.56959-1.3505-0.56959-0.85438 0-1.3505 0.56959-0.19293 0.22967-0.29398 0.54203-0.091869 0.30317-0.11024 0.55121-0.00919 0.24805-0.00919 0.75333v6.0358h-1.1759v-9.4074h1.1759v1.0289h0.091869q0.33992-0.53284 0.83601-0.85438 0.50528-0.32154 1.0197-0.32154z"/>
      <path d="m19.556 98.179v-0.09187q-0.79926-0.30317-1.13-0.8452t-0.33073-1.5618v-2.3243q0-1.0473-0.59715-1.4699-0.58796-0.43178-1.7547-0.43178v-1.1024q1.6445 0 2.5815 0.73495 0.94625 0.73495 0.94625 2.2692v2.3243q0 1.0473 0.58796 1.4791 0.59715 0.4226 1.7639 0.4226v1.1024q-1.1759 0-1.7639 0.43178-0.58796 0.4226-0.58796 1.4699v2.3243q0 1.5342-0.94625 2.2692-0.93707 0.73495-2.5815 0.73495v-1.1024q1.1759 0 1.7639-0.4226 0.58796-0.43178 0.58796-1.4791v-2.3243q0-1.0198 0.33073-1.5618t1.13-0.8452z"/>
    </g>
  </g>
</svg>
